<?xml version="1.0" standalone="no"?>
<!DOCTYPE svg PUBLIC "-//W3C//DTD SVG 20010904//EN"
 "http://www.w3.org/TR/2001/REC-SVG-20010904/DTD/svg10.dtd">
<svg version="1.0" xmlns="http://www.w3.org/2000/svg"
 width="260.000000pt" height="260.000000pt" viewBox="0 0 260.000000 260.000000"
 preserveAspectRatio="xMidYMid meet">
<metadata>
Created by potrace 1.11, written by Peter Selinger 2001-2013
</metadata>
<g transform="translate(0.000000,260.000000) scale(0.100000,-0.100000)"
fill="#000000" stroke="none">
<path d="M1407 1705 c-9 -9 -21 -13 -27 -10 -5 3 -10 1 -10 -4 0 -6 -9 -11
-19 -11 -27 0 -131 -62 -124 -73 3 -6 1 -7 -5 -3 -7 4 -38 -6 -69 -22 -32 -16
-92 -46 -133 -67 -41 -21 -86 -46 -100 -55 -14 -10 -74 -42 -135 -73 -60 -30
-140 -75 -176 -99 -37 -24 -119 -68 -184 -98 -65 -30 -186 -89 -269 -131
l-151 -76 -3 -207 -2 -206 22 -1 23 0 -22 -11 c-23 -11 -23 -14 -23 -193 0
-162 2 -185 19 -206 29 -38 29 -51 4 -106 l-23 -53 275 0 275 0 0 39 c0 33 3
39 25 43 13 3 23 2 21 -1 -4 -6 20 -32 29 -31 22 1 26 -2 22 -12 -4 -12 -9
-14 -49 -17 -10 0 -18 -5 -18 -11 0 -6 42 -10 105 -10 117 0 121 3 85 62 -13
22 -20 27 -20 16 0 -22 -9 -22 -35 -3 -13 10 -20 29 -22 58 -4 80 -21 105 -51
75 -9 -9 -12 -8 -12 4 0 9 -13 30 -30 48 -16 18 -30 36 -30 42 0 5 -9 6 -20 3
-18 -6 -20 -3 -16 22 2 15 5 30 6 33 2 5 4 29 9 180 2 48 6 58 31 78 25 19 33
21 51 11 16 -8 18 -13 9 -19 -7 -5 -19 -6 -25 -4 -7 3 -15 -4 -17 -14 -6 -21
20 -26 34 -7 4 6 13 -4 20 -23 7 -17 18 -32 25 -32 7 0 13 -11 13 -25 0 -16
-6 -25 -15 -25 -9 0 -15 -9 -15 -24 0 -28 -18 -45 -29 -27 -4 6 -13 -12 -20
-40 -8 -28 -9 -54 -5 -59 5 -4 27 -13 49 -20 22 -7 51 -20 64 -29 14 -9 52
-28 85 -42 62 -26 83 -49 47 -49 -12 0 -21 -4 -21 -10 0 -5 6 -10 12 -10 7 0
2 -7 -10 -16 -24 -17 -29 -34 -9 -34 6 0 30 -19 52 -42 22 -23 34 -38 28 -34
-18 10 -16 3 6 -22 l18 -22 837 0 836 0 0 430 0 429 -64 -3 c-35 -2 -71 -8
-80 -13 -9 -5 -55 -5 -108 -1 -51 5 -112 9 -135 10 -24 1 -43 5 -43 10 0 5 -9
4 -20 -2 -25 -13 -60 -4 -60 16 0 10 -13 14 -49 14 -37 0 -54 -5 -75 -25 -15
-14 -36 -25 -48 -25 -17 0 -19 -4 -14 -25 6 -25 -2 -30 -51 -28 -7 1 -13 -3
-13 -9 0 -5 -4 -6 -10 -3 -5 3 -10 -1 -10 -9 0 -10 -9 -16 -22 -16 -13 -1 -34
-7 -48 -15 -18 -9 -29 -10 -38 -3 -10 8 -11 7 -6 -7 6 -15 4 -17 -17 -12 -13
4 -30 7 -37 7 -7 0 -10 5 -7 10 3 6 -2 10 -12 11 -14 0 -15 2 -3 6 8 3 23 15
32 26 16 21 17 21 36 4 11 -10 23 -14 26 -9 7 11 -19 35 -40 38 -8 1 -14 -2
-14 -7 0 -15 -57 -10 -64 6 -3 9 0 15 9 15 9 0 12 6 8 17 -4 10 -2 14 4 10 6
-4 13 -1 16 7 3 8 19 17 36 21 17 4 29 10 26 15 -3 4 9 13 25 19 37 12 39 29
4 29 -16 0 -21 -3 -14 -8 9 -5 9 -9 1 -14 -6 -4 -11 -4 -11 0 0 4 -11 -3 -24
-15 -24 -23 -52 -20 -43 3 4 9 -3 11 -19 8 -23 -4 -34 -22 -14 -22 6 0 10 -4
10 -9 0 -5 -9 -7 -20 -4 -12 3 -20 0 -20 -7 0 -6 -6 -10 -12 -7 -7 2 -19 -3
-26 -12 -8 -9 -11 -11 -8 -4 5 8 0 8 -18 0 -13 -7 -22 -15 -20 -19 8 -13 13
-68 5 -64 -4 3 -13 -4 -19 -15 -12 -18 -11 -19 7 -10 13 7 22 8 26 1 4 -7 13
-7 26 0 15 9 19 7 19 -7 0 -15 1 -15 13 1 8 11 20 16 28 13 10 -4 9 -6 -3 -6
-10 -1 -18 -5 -18 -11 0 -5 3 -9 8 -9 18 3 26 -2 13 -10 -14 -9 -51 -3 -51 8
0 4 -10 7 -22 5 -13 -1 -23 -3 -23 -4 0 -1 -12 -3 -27 -4 -32 -3 -35 9 -12 42
15 22 15 23 -20 20 -19 -1 -32 -6 -29 -11 3 -5 -1 -13 -8 -18 -11 -7 -9 -10 9
-15 24 -7 28 -19 10 -30 -6 -4 -14 -2 -16 4 -2 7 -12 12 -23 12 -10 0 -19 6
-19 12 0 7 -7 2 -16 -10 -12 -18 -19 -20 -29 -12 -8 7 -19 9 -24 6 -5 -4 -12
-2 -16 3 -7 13 -48 10 -57 -4 -5 -6 -8 -5 -8 3 0 7 -4 10 -10 7 -6 -3 -7 1 -4
9 3 9 1 16 -5 16 -6 0 -11 -3 -11 -7 0 -5 -12 -9 -28 -9 -15 -1 -22 0 -16 3 7
2 10 12 7 22 -3 14 -14 18 -41 17 -32 -2 -94 -25 -68 -26 5 0 -1 -9 -14 -20
-26 -23 -39 -20 -19 5 42 49 63 66 77 60 12 -4 13 -3 2 10 -11 13 -10 14 5 8
14 -5 17 -3 12 10 -4 11 -2 14 9 10 7 -3 14 0 14 6 0 6 5 11 11 11 7 0 9 -9 5
-24 -4 -17 -1 -26 10 -30 14 -5 15 -4 5 8 -9 10 -9 16 -1 21 8 5 8 11 -1 21
-12 15 -5 49 9 40 5 -3 20 6 33 20 15 17 18 23 7 19 -9 -4 -19 -1 -24 6 -4 8
-3 10 4 5 7 -4 12 -2 12 4 0 6 4 9 9 5 5 -3 12 -1 16 5 3 5 0 10 -7 11 -7 0 6
8 30 18 24 9 59 16 78 14 24 -1 34 2 31 10 -4 13 -26 17 -42 8 -15 -9 -29 -8
-42 1 -7 6 -15 3 -22 -9 -6 -10 -11 -13 -11 -7 0 19 25 35 37 23 7 -7 14 -5
23 6 11 13 10 14 -5 9 -14 -6 -16 -4 -10 6 6 10 4 12 -8 7 -11 -4 -17 -1 -17
8 0 8 -6 15 -14 15 -8 0 -17 4 -20 9 -10 15 28 7 41 -9 18 -23 27 -5 15 30 -6
17 -7 28 -2 25 5 -3 27 5 48 19 28 17 43 21 55 14 22 -12 23 9 2 39 -13 19
-13 22 1 27 8 3 13 2 11 -2 -3 -4 -1 -18 4 -31 7 -19 12 -22 21 -13 20 20 32
14 15 -6 -10 -10 -17 -25 -17 -33 1 -9 8 -5 21 11 12 14 25 26 30 26 22 3 23
6 4 14 -17 8 -16 9 9 9 21 1 27 -3 22 -14 -3 -9 3 -19 14 -25 14 -7 20 -7 20
0 0 5 -4 10 -10 10 -5 0 -10 7 -10 17 0 15 2 15 19 -1 19 -17 20 -17 23 6 2
13 10 23 18 23 21 1 31 -17 18 -33 -9 -10 -8 -12 3 -10 21 5 29 21 17 36 -6 7
-7 12 -2 11 31 -5 52 2 49 19 -2 12 -11 17 -31 15 -16 -1 -21 1 -11 4 9 2 17
11 17 19 0 8 8 14 18 14 14 0 15 -2 2 -10 -12 -8 -11 -10 8 -10 16 0 22 6 22
21 0 11 -4 17 -10 14 -5 -3 -10 1 -10 10 0 9 -3 14 -7 12 -5 -3 -19 0 -33 5
-20 7 -22 11 -10 19 13 8 13 10 0 19 -13 8 -12 10 5 10 11 0 15 3 10 9 -15 13
-65 23 -65 13 0 -16 -35 -47 -55 -49 -11 -1 -14 0 -7 3 6 3 12 10 12 15 0 6
-6 9 -12 8 -34 -4 -41 0 -27 18 11 13 11 17 2 20 -7 3 -13 9 -13 14 0 12 21
11 39 0 13 -8 13 -12 0 -28 -13 -16 -13 -17 4 -4 9 7 17 11 17 8 0 -3 13 -1
30 4 28 10 28 12 13 27 -9 10 -20 18 -25 18 -4 1 -10 2 -13 3 -2 0 0 12 5 25
7 19 5 26 -7 30 -14 6 -13 10 8 33 13 15 16 22 7 14 -14 -11 -20 -9 -35 8 -9
12 -23 21 -30 21 -6 0 -15 5 -19 12 -5 7 -3 8 7 3 8 -5 6 1 -4 12 -16 18 -16
21 -2 26 8 4 15 11 15 17 0 6 -4 8 -10 5 -5 -3 -10 -3 -10 2 0 4 -9 19 -19 31
-16 22 -19 23 -34 7z m63 -303 c0 -4 -6 -14 -12 -21 -9 -10 -9 -12 -1 -7 6 3
15 2 18 -4 4 -6 3 -9 -2 -8 -5 2 -20 -7 -33 -20 -17 -16 -19 -21 -7 -17 10 4
17 2 17 -4 0 -13 -27 -15 -35 -2 -3 5 -1 13 5 16 6 4 10 15 8 24 -2 10 3 25
11 34 14 18 31 22 31 9z m-534 -81 c-4 -5 2 -7 13 -4 10 3 21 -2 24 -10 4 -11
-2 -13 -26 -11 -16 2 -32 6 -35 8 -6 7 8 26 19 26 6 0 8 -4 5 -9z m-56 -11 c0
-5 -4 -10 -10 -10 -5 0 -10 5 -10 10 0 6 5 10 10 10 6 0 10 -4 10 -10z m197
-10 c-6 -8 -12 -16 -13 -18 -1 -1 -4 5 -6 15 -4 13 0 19 13 19 14 0 16 -3 6
-16z m456 -5 c-3 -9 -8 -14 -10 -11 -3 3 -2 9 2 15 9 16 15 13 8 -4z m-423 1
c0 -3 -4 -8 -10 -11 -5 -3 -10 -1 -10 4 0 6 5 11 10 11 6 0 10 -2 10 -4z m340
-5 c0 -5 -7 -12 -16 -15 -14 -5 -15 -4 -4 9 14 17 20 19 20 6z m-675 -131 c3
-5 1 -10 -4 -10 -6 0 -11 5 -11 10 0 6 2 10 4 10 3 0 8 -4 11 -10z m132 -12
c-3 -8 -6 -5 -6 6 -1 11 2 17 5 13 3 -3 4 -12 1 -19z m-34 -51 c-3 -5 -2 -8 3
-4 5 3 25 2 44 -3 31 -8 29 -8 -19 -7 -42 2 -55 6 -57 18 -1 12 4 15 17 12 10
-3 16 -10 12 -16z m57 -37 c21 -7 22 -8 5 -9 -17 -1 -17 -3 -5 -11 8 -5 10
-10 5 -10 -6 0 -17 6 -23 12 -9 9 -17 10 -30 2 -13 -8 -21 -6 -34 8 -17 17
-16 18 20 17 20 -1 48 -5 62 -9z m-193 -212 c-3 -8 -6 -5 -6 6 -1 11 2 17 5
13 3 -3 4 -12 1 -19z m842 -27 c-15 -5 -22 6 -14 19 6 9 10 9 16 -1 5 -8 4
-15 -2 -18z m361 -11 c0 -5 -2 -10 -4 -10 -3 0 -8 5 -11 10 -3 6 -1 10 4 10 6
0 11 -4 11 -10z m-830 -61 c0 -5 0 -12 0 -16 0 -4 -6 -8 -14 -9 -9 -1 -13 6
-12 21 1 21 26 25 26 4z m-470 -17 c0 -5 -7 -9 -15 -9 -8 0 -12 4 -9 9 3 4 9
8 15 8 5 0 9 -4 9 -8z m70 -49 c0 -1 -8 -7 -18 -12 -13 -7 -19 -6 -19 2 0 7 9
13 19 13 10 0 18 -1 18 -3z m271 -2 c4 7 11 10 16 6 4 -5 1 -12 -7 -17 -22
-14 -30 -12 -29 8 0 12 2 13 6 3 4 -11 7 -11 14 0z m-907 -59 c3 -5 -1 -9 -9
-9 -8 0 -12 4 -9 9 3 4 7 8 9 8 2 0 6 -4 9 -8z m656 -12 c12 -7 12 -12 2 -22
-9 -9 -12 -9 -12 0 0 7 -8 12 -17 12 -10 0 -25 5 -33 10 -12 7 -8 10 15 10 17
0 37 -5 45 -10z m-230 -38 c0 -4 -7 -17 -15 -30 -11 -14 -13 -28 -7 -39 4 -10
7 -24 6 -30 -1 -7 -2 -20 -3 -28 0 -8 -6 -15 -11 -15 -6 0 -10 7 -8 16 2 10
-2 19 -7 21 -7 2 -9 -12 -7 -36 2 -23 -1 -42 -8 -46 -9 -5 -10 -2 -6 13 4 13
1 22 -8 25 -12 5 -14 -2 -11 -33 2 -22 -1 -42 -6 -45 -5 -4 -9 1 -9 9 0 9 -5
16 -11 16 -7 0 -10 21 -8 58 2 31 1 62 -3 67 -4 6 2 22 13 35 10 14 19 19 19
13 0 -7 4 -13 10 -13 5 0 7 6 4 14 -3 8 3 16 15 19 26 6 34 -2 18 -21 -10 -13
-9 -14 3 -10 8 2 16 11 16 19 1 8 2 17 3 22 1 9 21 9 21 -1z"/>
<path d="M2326 1321 c-4 -6 -2 -11 4 -11 6 0 8 -6 4 -12 -6 -10 -4 -10 7 0 9
9 10 15 2 23 -8 8 -13 8 -17 0z"/>
<path d="M1885 1299 c-9 -13 -4 -18 32 -28 20 -6 37 -4 54 4 l24 13 -28 6
c-15 3 -38 8 -51 11 -14 3 -28 0 -31 -6z"/>
<path d="M2100 1303 c0 -17 19 -37 27 -29 4 5 2 11 -5 13 -6 3 -10 9 -6 14 3
5 0 9 -5 9 -6 0 -11 -3 -11 -7z"/>
<path d="M2140 1288 c0 -19 2 -20 10 -8 13 19 13 30 0 30 -5 0 -10 -10 -10
-22z"/>
<path d="M1716 1241 c-4 -5 3 -7 14 -4 23 6 26 13 6 13 -8 0 -17 -4 -20 -9z"/>
<path d="M2118 1233 c12 -2 30 -2 40 0 9 3 -1 5 -23 4 -22 0 -30 -2 -17 -4z"/>
<path d="M1645 1171 c-9 -16 9 -20 23 -5 10 12 10 14 -2 14 -8 0 -17 -4 -21
-9z"/>
<path d="M1395 1130 c-3 -5 -1 -10 4 -10 6 0 11 5 11 10 0 6 -2 10 -4 10 -3 0
-8 -4 -11 -10z"/>
<path d="M1571 1131 c-8 -5 -12 -18 -8 -30 3 -11 -1 -25 -9 -32 -8 -6 -11 -15
-8 -20 3 -5 0 -9 -5 -9 -6 0 -11 -7 -11 -17 0 -9 3 -13 7 -10 3 4 12 2 20 -5
7 -6 16 -8 20 -4 3 3 1 6 -5 6 -7 0 -12 7 -12 15 0 8 6 12 14 9 7 -3 16 2 19
10 4 9 1 16 -5 16 -6 0 -1 11 11 24 20 22 21 24 4 23 -12 -1 -17 4 -15 16 3
19 2 20 -17 8z"/>
<path d="M1657 1102 c-10 -11 -14 -23 -9 -26 12 -7 35 19 30 34 -2 7 -11 3
-21 -8z"/>
<path d="M1414 1099 c-3 -6 -3 -13 0 -16 3 -4 6 -1 6 5 0 6 7 9 15 6 8 -4 15
-4 15 -1 0 11 -30 16 -36 6z"/>
<path d="M1508 1093 c6 -2 10 -9 6 -14 -3 -5 2 -9 10 -9 10 0 13 6 10 15 -4 8
-14 15 -23 14 -10 0 -11 -2 -3 -6z"/>
<path d="M1322 1068 c7 -13 14 -25 15 -27 1 -1 7 0 13 4 8 5 5 13 -9 26 -27
25 -34 24 -19 -3z"/>
<path d="M1385 1060 c-3 -5 1 -10 9 -10 8 0 18 5 21 10 3 6 -1 10 -9 10 -8 0
-18 -4 -21 -10z"/>
<path d="M1511 1046 c-9 -11 -9 -16 0 -22 7 -4 9 -3 5 4 -3 5 0 12 6 15 7 2
10 7 7 11 -3 4 -12 0 -18 -8z"/>
<path d="M1617 1049 c7 -7 15 -10 18 -7 3 3 -2 9 -12 12 -14 6 -15 5 -6 -5z"/>
<path d="M1476 991 c-4 -5 3 -7 14 -4 23 6 26 13 6 13 -8 0 -17 -4 -20 -9z"/>
<path d="M1270 948 c0 -4 0 -10 0 -14 1 -3 -9 -14 -22 -24 -19 -16 -20 -19 -6
-20 9 0 25 11 36 25 11 13 22 21 26 17 4 -3 4 1 1 9 -6 16 -35 22 -35 7z"/>
<path d="M1305 899 c-4 -6 -5 -12 -2 -15 2 -3 7 2 10 11 7 17 1 20 -8 4z"/>
<path d="M1210 880 c0 -6 -7 -10 -16 -10 -8 0 -12 -5 -8 -11 4 -8 9 -8 17 0
13 13 30 15 22 2 -3 -5 -2 -12 3 -15 4 -2 8 4 9 14 1 10 -5 21 -13 24 -8 3
-14 1 -14 -4z"/>
<path d="M1320 876 c0 -2 8 -10 18 -17 15 -13 16 -12 3 4 -13 16 -21 21 -21
13z"/>
<path d="M2125 870 c3 -5 8 -10 11 -10 2 0 4 5 4 10 0 6 -5 10 -11 10 -5 0 -7
-4 -4 -10z"/>
<path d="M1275 860 c-3 -5 -2 -10 4 -10 5 0 13 5 16 10 3 6 2 10 -4 10 -5 0
-13 -4 -16 -10z"/>
<path d="M1390 850 c-8 -5 -12 -12 -9 -15 4 -3 12 1 19 10 14 17 11 19 -10 5z"/>
<path d="M1410 835 c-8 -9 -8 -15 -2 -15 12 0 26 19 19 26 -2 2 -10 -2 -17
-11z"/>
<path d="M1715 829 c-11 -16 -1 -19 13 -3 7 8 8 14 3 14 -5 0 -13 -5 -16 -11z"/>
<path d="M1181 804 c0 -11 3 -14 6 -6 3 7 2 16 -1 19 -3 4 -6 -2 -5 -13z"/>
<path d="M1380 800 c-13 -8 -12 -10 3 -10 9 0 17 5 17 10 0 12 -1 12 -20 0z"/>
<path d="M1326 779 c-15 -9 -16 -13 -5 -20 8 -5 21 -9 29 -9 13 0 13 1 0 10
-13 9 -13 11 0 20 20 13 0 12 -24 -1z"/>
<path d="M1666 764 c-4 -10 -1 -14 6 -12 15 5 23 28 10 28 -5 0 -13 -7 -16
-16z"/>
<path d="M580 409 c0 -11 4 -18 10 -14 5 3 7 12 3 20 -7 21 -13 19 -13 -6z"/>
</g>
</svg>
